G04 Layer_Physical_Order=2*
G04 Layer_Color=16711680*
%FSLAX43Y43*%
%MOMM*%
G71*
G01*
G75*
%ADD16C,1.920*%
%ADD17C,2.800*%
%ADD18C,1.500*%
G36*
X29800Y200D02*
X20343D01*
X20297Y327D01*
X20526Y514D01*
X20769Y811D01*
X20950Y1150D01*
X21062Y1518D01*
X21099Y1900D01*
X21062Y2282D01*
X20950Y2650D01*
X20769Y2989D01*
X20526Y3286D01*
X20229Y3529D01*
X19890Y3710D01*
X19522Y3822D01*
X19140Y3859D01*
X18758Y3822D01*
X18390Y3710D01*
X18051Y3529D01*
X17870Y3380D01*
X17689Y3529D01*
X17350Y3710D01*
X16982Y3822D01*
X16600Y3859D01*
X16218Y3822D01*
X15850Y3710D01*
X15511Y3529D01*
X15330Y3380D01*
X15149Y3529D01*
X14810Y3710D01*
X14442Y3822D01*
X14060Y3859D01*
X13678Y3822D01*
X13310Y3710D01*
X12971Y3529D01*
X12790Y3380D01*
X12609Y3529D01*
X12270Y3710D01*
X11902Y3822D01*
X11520Y3859D01*
X11138Y3822D01*
X10770Y3710D01*
X10431Y3529D01*
X10134Y3286D01*
X9891Y2989D01*
X9710Y2650D01*
X9648Y2447D01*
X9523Y2424D01*
X9515Y2435D01*
X9358Y2555D01*
X9176Y2631D01*
X9107Y2640D01*
Y1900D01*
Y1160D01*
X9176Y1169D01*
X9358Y1245D01*
X9515Y1365D01*
X9523Y1376D01*
X9648Y1353D01*
X9710Y1150D01*
X9891Y811D01*
X10134Y514D01*
X10363Y327D01*
X10317Y200D01*
X200D01*
Y26800D01*
X29800D01*
Y200D01*
D02*
G37*
%LPC*%
G36*
X12348Y12098D02*
X11735D01*
X11744Y12029D01*
X11820Y11847D01*
X11940Y11690D01*
X12097Y11570D01*
X12279Y11494D01*
X12348Y11485D01*
Y12098D01*
D02*
G37*
G36*
X21602Y11940D02*
Y11327D01*
X22215D01*
X22206Y11396D01*
X22130Y11578D01*
X22010Y11735D01*
X21853Y11855D01*
X21671Y11931D01*
X21602Y11940D01*
D02*
G37*
G36*
X21348D02*
X21279Y11931D01*
X21097Y11855D01*
X20940Y11735D01*
X20820Y11578D01*
X20744Y11396D01*
X20735Y11327D01*
X21348D01*
Y11940D01*
D02*
G37*
G36*
X13215Y12098D02*
X12602D01*
Y11485D01*
X12671Y11494D01*
X12853Y11570D01*
X13010Y11690D01*
X13130Y11847D01*
X13206Y12029D01*
X13215Y12098D01*
D02*
G37*
G36*
X5695Y16773D02*
X4427D01*
Y15505D01*
X4665Y15536D01*
X5006Y15677D01*
X5298Y15902D01*
X5523Y16194D01*
X5664Y16535D01*
X5695Y16773D01*
D02*
G37*
G36*
X12602Y12965D02*
Y12352D01*
X13215D01*
X13206Y12421D01*
X13130Y12603D01*
X13010Y12760D01*
X12853Y12880D01*
X12671Y12956D01*
X12602Y12965D01*
D02*
G37*
G36*
X12348D02*
X12279Y12956D01*
X12097Y12880D01*
X11940Y12760D01*
X11820Y12603D01*
X11744Y12421D01*
X11735Y12352D01*
X12348D01*
Y12965D01*
D02*
G37*
G36*
X22215Y11073D02*
X21602D01*
Y10460D01*
X21671Y10469D01*
X21853Y10545D01*
X22010Y10665D01*
X22130Y10822D01*
X22206Y11004D01*
X22215Y11073D01*
D02*
G37*
G36*
X10148Y6173D02*
X9536D01*
X9545Y6105D01*
X9620Y5922D01*
X9740Y5765D01*
X9897Y5645D01*
X10080Y5570D01*
X10148Y5561D01*
Y6173D01*
D02*
G37*
G36*
X8853Y2640D02*
X8784Y2631D01*
X8602Y2555D01*
X8445Y2435D01*
X8325Y2278D01*
X8249Y2096D01*
X8240Y2027D01*
X8853D01*
Y2640D01*
D02*
G37*
G36*
Y1773D02*
X8240D01*
X8249Y1704D01*
X8325Y1522D01*
X8445Y1365D01*
X8602Y1245D01*
X8784Y1169D01*
X8853Y1160D01*
Y1773D01*
D02*
G37*
G36*
X11015Y6173D02*
X10402D01*
Y5561D01*
X10471Y5570D01*
X10654Y5645D01*
X10810Y5765D01*
X10930Y5922D01*
X11006Y6105D01*
X11015Y6173D01*
D02*
G37*
G36*
X21348Y11073D02*
X20735D01*
X20744Y11004D01*
X20820Y10822D01*
X20940Y10665D01*
X21097Y10545D01*
X21279Y10469D01*
X21348Y10460D01*
Y11073D01*
D02*
G37*
G36*
X10402Y7040D02*
Y6427D01*
X11015D01*
X11006Y6496D01*
X10930Y6679D01*
X10810Y6835D01*
X10654Y6955D01*
X10471Y7031D01*
X10402Y7040D01*
D02*
G37*
G36*
X10148D02*
X10080Y7031D01*
X9897Y6955D01*
X9740Y6835D01*
X9620Y6679D01*
X9545Y6496D01*
X9536Y6427D01*
X10148D01*
Y7040D01*
D02*
G37*
G36*
X25573Y16773D02*
X24305D01*
X24336Y16535D01*
X24477Y16194D01*
X24702Y15902D01*
X24994Y15677D01*
X25335Y15536D01*
X25573Y15505D01*
Y16773D01*
D02*
G37*
G36*
X5695Y24373D02*
X4427D01*
Y23105D01*
X4665Y23136D01*
X5006Y23277D01*
X5298Y23502D01*
X5523Y23794D01*
X5664Y24135D01*
X5695Y24373D01*
D02*
G37*
G36*
X25573Y24373D02*
X24305D01*
X24336Y24135D01*
X24477Y23794D01*
X24702Y23502D01*
X24994Y23277D01*
X25335Y23136D01*
X25573Y23105D01*
Y24373D01*
D02*
G37*
G36*
X27095D02*
X25827D01*
Y23105D01*
X26065Y23136D01*
X26406Y23277D01*
X26698Y23502D01*
X26923Y23794D01*
X27064Y24135D01*
X27095Y24373D01*
D02*
G37*
G36*
X4173Y24373D02*
X2905D01*
X2936Y24135D01*
X3077Y23794D01*
X3302Y23502D01*
X3594Y23277D01*
X3935Y23136D01*
X4173Y23105D01*
Y24373D01*
D02*
G37*
G36*
X25573Y25895D02*
X25335Y25864D01*
X24994Y25723D01*
X24702Y25498D01*
X24477Y25206D01*
X24336Y24865D01*
X24305Y24627D01*
X25573D01*
Y25895D01*
D02*
G37*
G36*
X25827Y25895D02*
Y24627D01*
X27095D01*
X27064Y24865D01*
X26923Y25206D01*
X26698Y25498D01*
X26406Y25723D01*
X26065Y25864D01*
X25827Y25895D01*
D02*
G37*
G36*
X4173D02*
X3935Y25864D01*
X3594Y25723D01*
X3302Y25498D01*
X3077Y25206D01*
X2936Y24865D01*
X2905Y24627D01*
X4173D01*
Y25895D01*
D02*
G37*
G36*
X4427Y25895D02*
Y24627D01*
X5695D01*
X5664Y24865D01*
X5523Y25206D01*
X5298Y25498D01*
X5006Y25723D01*
X4665Y25864D01*
X4427Y25895D01*
D02*
G37*
G36*
X4173Y18295D02*
X3935Y18264D01*
X3594Y18123D01*
X3302Y17898D01*
X3077Y17606D01*
X2936Y17265D01*
X2905Y17027D01*
X4173D01*
Y18295D01*
D02*
G37*
G36*
X4427Y18295D02*
Y17027D01*
X5695D01*
X5664Y17265D01*
X5523Y17606D01*
X5298Y17898D01*
X5006Y18123D01*
X4665Y18264D01*
X4427Y18295D01*
D02*
G37*
G36*
X27095Y16773D02*
X25827D01*
Y15505D01*
X26065Y15536D01*
X26406Y15677D01*
X26698Y15902D01*
X26923Y16194D01*
X27064Y16535D01*
X27095Y16773D01*
D02*
G37*
G36*
X4173Y16773D02*
X2905D01*
X2936Y16535D01*
X3077Y16194D01*
X3302Y15902D01*
X3594Y15677D01*
X3935Y15536D01*
X4173Y15505D01*
Y16773D01*
D02*
G37*
G36*
X12100Y22870D02*
X11677Y22829D01*
X11269Y22705D01*
X10894Y22505D01*
X10565Y22235D01*
X10295Y21906D01*
X10095Y21531D01*
X9971Y21123D01*
X9930Y20700D01*
X9971Y20277D01*
X10095Y19869D01*
X10295Y19494D01*
X10565Y19165D01*
X10894Y18895D01*
X11269Y18695D01*
X11677Y18571D01*
X12100Y18530D01*
X12523Y18571D01*
X12931Y18695D01*
X13306Y18895D01*
X13635Y19165D01*
X13905Y19494D01*
X14105Y19869D01*
X14229Y20277D01*
X14270Y20700D01*
X14229Y21123D01*
X14105Y21531D01*
X13905Y21906D01*
X13635Y22235D01*
X13306Y22505D01*
X12931Y22705D01*
X12523Y22829D01*
X12100Y22870D01*
D02*
G37*
G36*
X17900D02*
X17477Y22829D01*
X17069Y22705D01*
X16694Y22505D01*
X16365Y22235D01*
X16095Y21906D01*
X15895Y21531D01*
X15771Y21123D01*
X15730Y20700D01*
X15771Y20277D01*
X15895Y19869D01*
X16095Y19494D01*
X16365Y19165D01*
X16694Y18895D01*
X17069Y18695D01*
X17477Y18571D01*
X17900Y18530D01*
X18323Y18571D01*
X18731Y18695D01*
X19106Y18895D01*
X19435Y19165D01*
X19705Y19494D01*
X19905Y19869D01*
X20029Y20277D01*
X20070Y20700D01*
X20029Y21123D01*
X19905Y21531D01*
X19705Y21906D01*
X19435Y22235D01*
X19106Y22505D01*
X18731Y22705D01*
X18323Y22829D01*
X17900Y22870D01*
D02*
G37*
G36*
X25573Y18295D02*
X25335Y18264D01*
X24994Y18123D01*
X24702Y17898D01*
X24477Y17606D01*
X24336Y17265D01*
X24305Y17027D01*
X25573D01*
Y18295D01*
D02*
G37*
G36*
X25827D02*
Y17027D01*
X27095D01*
X27064Y17265D01*
X26923Y17606D01*
X26698Y17898D01*
X26406Y18123D01*
X26065Y18264D01*
X25827Y18295D01*
D02*
G37*
%LPD*%
D16*
X17900Y20700D02*
D03*
X12100D02*
D03*
D17*
X25700Y24500D02*
D03*
Y16900D02*
D03*
X4300D02*
D03*
Y24500D02*
D03*
D18*
X19140Y1900D02*
D03*
X16600D02*
D03*
X8980D02*
D03*
X11520D02*
D03*
X14060D02*
D03*
X10275Y6300D02*
D03*
X21475Y11200D02*
D03*
X12475Y12225D02*
D03*
M02*
