G04 Layer_Physical_Order=1*
G04 Layer_Color=255*
%FSLAX43Y43*%
%MOMM*%
G71*
G01*
G75*
%ADD10R,0.750X0.400*%
%ADD11R,0.950X1.000*%
%ADD12R,1.800X1.150*%
%ADD13C,0.305*%
%ADD14C,0.300*%
%ADD15R,0.425X0.150*%
%ADD16C,1.920*%
%ADD17C,2.800*%
%ADD18C,1.500*%
D10*
X15984Y11550D02*
D03*
Y12850D02*
D03*
X14084Y11550D02*
D03*
Y12200D02*
D03*
Y12850D02*
D03*
D11*
X18125Y9200D02*
D03*
X19725D02*
D03*
X18125Y11200D02*
D03*
X19725D02*
D03*
X18125Y13200D02*
D03*
X19725D02*
D03*
X14600Y6300D02*
D03*
X16200D02*
D03*
X11800Y6300D02*
D03*
X13400D02*
D03*
D12*
X16100Y15400D02*
D03*
Y18400D02*
D03*
D13*
X18125Y2915D02*
X19140Y1900D01*
X18125Y2915D02*
Y9200D01*
X16600Y1900D02*
Y5900D01*
X16200Y6300D02*
X16600Y5900D01*
X18125Y9200D02*
Y11200D01*
Y13200D01*
X18125Y13200D02*
X18125Y13200D01*
X12100Y14834D02*
Y20700D01*
Y14834D02*
X14084Y12850D01*
X15550Y11550D02*
X15984D01*
X15000Y12100D02*
X15550Y11550D01*
X15000Y12100D02*
Y14300D01*
X16100Y15400D01*
Y18400D02*
Y18900D01*
X17900Y20700D01*
X14000Y6000D02*
Y11300D01*
D14*
X10275Y6300D02*
X11800D01*
X19725Y11200D02*
X19725Y11200D01*
X19725Y11200D02*
Y13200D01*
X19725Y9200D02*
Y11200D01*
X21475D01*
X17775Y12850D02*
X18125Y13200D01*
X15984Y12850D02*
X17775D01*
X12475Y12225D02*
X14059D01*
X14084Y12200D01*
D15*
X14087Y5875D02*
D03*
D16*
X17900Y20700D02*
D03*
X12100D02*
D03*
D17*
X25700Y24500D02*
D03*
Y16900D02*
D03*
X4300D02*
D03*
Y24500D02*
D03*
D18*
X19140Y1900D02*
D03*
X16600D02*
D03*
X8980D02*
D03*
X11520D02*
D03*
X14060D02*
D03*
X10275Y6300D02*
D03*
X21475Y11200D02*
D03*
X12475Y12225D02*
D03*
M02*
