G04 Layer_Physical_Order=1*
G04 Layer_Color=255*
%FSLAX43Y43*%
%MOMM*%
G71*
G01*
G75*
%ADD10R,0.950X1.000*%
%ADD11R,0.750X0.400*%
%ADD12C,0.305*%
%ADD13C,0.300*%
%ADD14R,0.425X0.150*%
%ADD15C,1.500*%
%ADD16C,2.800*%
%ADD17C,1.920*%
D10*
X13400Y6300D02*
D03*
X11800D02*
D03*
X16200Y6300D02*
D03*
X14600D02*
D03*
X19725Y13200D02*
D03*
X18125D02*
D03*
X19725Y11200D02*
D03*
X18125D02*
D03*
X19725Y9200D02*
D03*
X18125D02*
D03*
D11*
X14084Y12850D02*
D03*
Y12200D02*
D03*
Y11550D02*
D03*
X15984Y12850D02*
D03*
Y11550D02*
D03*
D12*
X14000Y6000D02*
Y11300D01*
X16100Y15400D02*
Y18900D01*
X15000Y14300D02*
X16100Y15400D01*
X15000Y12100D02*
Y14300D01*
Y12100D02*
X15550Y11550D01*
X15984D01*
X12100Y14834D02*
X14084Y12850D01*
X12100Y14834D02*
Y20700D01*
X18125Y13200D02*
X18125Y13200D01*
Y11200D02*
Y13200D01*
Y9200D02*
Y11200D01*
X16200Y6300D02*
X16600Y5900D01*
X18125Y2915D02*
Y9200D01*
X16100Y18900D02*
X17900Y20700D01*
X18125Y2915D02*
X19140Y1900D01*
X16600D02*
Y5900D01*
D13*
X14059Y12225D02*
X14084Y12200D01*
X12475Y12225D02*
X14059D01*
X15984Y12850D02*
X17775D01*
X18125Y13200D01*
X19725Y11200D02*
X21475D01*
X19725Y9200D02*
Y11200D01*
X19725Y11200D02*
Y13200D01*
Y11200D02*
X19725Y11200D01*
X10275Y6300D02*
X11800D01*
D14*
X14087Y5875D02*
D03*
D15*
X14060Y1900D02*
D03*
X11520D02*
D03*
X8980D02*
D03*
X16600D02*
D03*
X19140D02*
D03*
X12475Y12225D02*
D03*
X21475Y11200D02*
D03*
X10275Y6300D02*
D03*
D16*
X4300Y24500D02*
D03*
Y16900D02*
D03*
X25700D02*
D03*
Y24500D02*
D03*
D17*
X12100Y20700D02*
D03*
X17900D02*
D03*
M02*
