G04 Layer_Physical_Order=1*
G04 Layer_Color=255*
%FSLAX43Y43*%
%MOMM*%
G71*
G01*
G75*
%ADD10R,0.950X1.000*%
%ADD11R,0.750X0.400*%
%ADD12C,0.400*%
%ADD13C,0.900*%
%ADD14C,0.305*%
%ADD15C,0.300*%
%ADD16R,0.425X0.175*%
%ADD17C,1.500*%
%ADD18C,2.800*%
%ADD19C,1.920*%
D10*
X13400Y6775D02*
D03*
X11800D02*
D03*
X16200Y6775D02*
D03*
X14600D02*
D03*
X19725Y13200D02*
D03*
X18125D02*
D03*
X19725Y11200D02*
D03*
X18125D02*
D03*
X19725Y9200D02*
D03*
X18125D02*
D03*
D11*
X14084Y12850D02*
D03*
Y12200D02*
D03*
Y11550D02*
D03*
X15984Y12850D02*
D03*
Y11550D02*
D03*
D12*
X18125Y4200D02*
X19140Y3185D01*
X16600Y3275D02*
Y6375D01*
X14000Y6500D02*
Y11300D01*
X12500Y12200D02*
X14084D01*
X12475Y12225D02*
X12500Y12200D01*
X15000Y12100D02*
Y13628D01*
Y12100D02*
X15550Y11550D01*
X18125Y11200D02*
Y13200D01*
Y9200D02*
Y11200D01*
X15984Y12850D02*
X17775D01*
X19725Y11200D02*
X21475D01*
X19725Y9200D02*
Y11200D01*
X19725Y11200D02*
Y13200D01*
X10275Y6775D02*
X11800D01*
X18125Y4200D02*
Y9200D01*
D13*
X16100Y14728D02*
Y18900D01*
X15000Y13628D02*
X16100Y14728D01*
X12100Y14834D02*
X13823Y13111D01*
X12100Y14834D02*
Y20700D01*
X16100Y18900D02*
X17900Y20700D01*
D14*
X15550Y11550D02*
X15984D01*
X18125Y13200D02*
X18125Y13200D01*
X19140Y2760D02*
Y3185D01*
X16200Y6775D02*
X16600Y6375D01*
D15*
X17775Y12850D02*
X18125Y13200D01*
X19725Y11200D02*
X19725Y11200D01*
D16*
X14005Y6361D02*
D03*
D17*
X14050Y3275D02*
D03*
X11510D02*
D03*
X8970D02*
D03*
X16590D02*
D03*
X19130D02*
D03*
X12475Y12225D02*
D03*
X21475Y11200D02*
D03*
X10275Y6775D02*
D03*
D18*
X4300Y24500D02*
D03*
Y16900D02*
D03*
X25700D02*
D03*
Y24500D02*
D03*
D19*
X12100Y20700D02*
D03*
X17900D02*
D03*
M02*
